<svg width="406" height="43" viewBox="0 0 406 43" fill="none" xmlns="http://www.w3.org/2000/svg">
<path d="M56.7463 42.1052H57.2463V41.6052V1.67676V1.17676H56.7463H38.5199H38.0199V1.67676V20.8351L19.5897 1.33333L19.4417 1.17676H19.2263H1H0.5V1.67676V41.6052V42.1052H1H19.2263H19.7263V41.6052V22.7701L38.1594 41.9517L38.307 42.1052H38.5199H56.7463ZM106.531 1.67676V1.17676H106.031H64.9807H64.4807V1.67676V41.6052V42.1052H64.9807H83.207H83.707V41.6052V27.0475H99.6271H100.127V26.5475V17.1293V16.6293H99.6271H83.707V12.1025H106.031H106.531V11.6025V1.67676ZM158.352 1.67676V1.17676H157.852H108.92H108.42V1.67676V11.6025V12.1025H108.92H123.691V41.6052V42.1052H124.191H142.417H142.917V41.6052V12.1025H157.852H158.352V11.6025V1.67676ZM217.071 39.4783L217.073 39.4777C221.732 37.6871 225.343 35.2358 227.873 32.1067C230.406 28.9754 231.679 25.4438 231.679 21.5282C231.679 17.576 230.406 14.0431 227.871 10.9473C225.339 7.85497 221.727 5.46051 217.067 3.74576C212.457 2.02874 207.086 1.17676 200.966 1.17676H176.746H176.246V1.67676V41.6052V42.1052H176.746H200.966C207.088 42.1052 212.46 41.2341 217.071 39.4783ZM266.591 41.9083L266.741 42.1052H266.988H287.021H288.083L287.406 41.2865L275.276 26.6237C279.002 25.6953 281.923 24.2393 284.001 22.2276C286.274 20.0792 287.439 17.5848 287.439 14.7607C287.439 12.1552 286.545 9.8234 284.775 7.78277C283.056 5.69944 280.477 4.09836 277.085 2.95211C273.679 1.76369 269.598 1.17676 264.854 1.17676H237.761H237.261V1.67676V41.6052V42.1052H237.761H255.987H256.487V41.6052V28.6536L266.591 41.9083ZM266.787 13.4811L266.799 13.4887C267.596 14.0039 267.966 14.6776 267.966 15.5502C267.966 16.5666 267.598 17.2603 266.888 17.72C266.127 18.1745 264.924 18.434 263.212 18.434H256.487V12.6664H263.212C264.863 12.6664 266.031 12.9615 266.787 13.4811ZM305.798 39.8154L305.8 39.8161C310.461 41.6075 315.558 42.5 321.086 42.5C326.559 42.5 331.602 41.6075 336.208 39.8161C340.867 38.0253 344.555 35.5384 347.246 32.342C350.001 29.1363 351.389 25.5074 351.389 21.4718C351.389 17.4362 350.001 13.8075 347.247 10.6018C344.556 7.40636 340.896 4.93791 336.291 3.18439C331.684 1.3924 326.614 0.5 321.086 0.5C315.558 0.5 310.461 1.39251 305.8 3.1839C301.194 4.9376 297.508 7.40588 294.763 10.5998C292.008 13.8059 290.62 17.4355 290.62 21.4718C290.62 25.5081 292.008 29.1377 294.763 32.3438C297.508 35.5371 301.193 38.024 305.798 39.8154ZM329.143 15.3728L329.148 15.3764C330.988 16.8516 331.916 18.8638 331.916 21.4718C331.916 24.0384 330.991 26.0535 329.146 27.5684C327.296 29.0506 324.632 29.826 321.086 29.826C317.484 29.826 314.793 29.0497 312.944 27.5684C311.099 26.0535 310.174 24.0384 310.174 21.4718C310.174 18.8638 311.102 16.8516 312.943 15.3764L312.947 15.3728C314.796 13.8557 317.485 13.0612 321.086 13.0612C324.63 13.0612 327.293 13.8548 329.143 15.3728ZM402.839 22.582L402.841 22.5785C404.607 20.4272 405.5 18.0232 405.5 15.381C405.5 11.0211 403.483 7.54417 399.527 4.98103C395.635 2.4234 390.076 1.17676 382.915 1.17676H357.464H356.964V1.67676V41.6052V42.1052H357.464H375.69H376.19V41.6052V29.4161H382.915C387.661 29.4161 391.719 28.8099 395.073 27.5812C398.467 26.358 401.069 24.6993 402.839 22.582ZM208.824 27.7054C206.524 29.1776 203.373 29.9388 199.324 29.9388H195.473V13.1176H199.324C203.373 13.1176 206.524 13.8788 208.824 15.351C211.089 16.8006 212.206 18.8414 212.206 21.5282C212.206 24.215 211.089 26.2558 208.824 27.7054ZM386.027 15.381C386.027 16.4508 385.627 17.2008 384.839 17.7106C384.014 18.2445 382.713 18.5468 380.862 18.5468H376.19V12.2153H380.862C382.713 12.2153 384.014 12.5175 384.839 13.0515C385.627 13.5612 386.027 14.3112 386.027 15.381Z" stroke="white" stroke-opacity="0.19"/>
</svg>
