<svg width="71" height="71" viewBox="0 0 71 71" fill="none" xmlns="http://www.w3.org/2000/svg">
<path d="M52.496 49.3183L6.25784 69.4375C3.24381 70.637 0.248496 67.6675 1.4218 64.6434L21.6275 17.6774" fill="#FFB636"/>
<path d="M1.42172 64.6434L3.02754 60.9109C3.16524 60.7009 3.30252 60.4907 3.44036 60.2809C11.4274 48.1133 19.5316 36.02 27.9125 24.1197L37.3096 33.7519C30.2193 38.6195 7.19698 62.411 2.37467 68.7217C1.32492 67.7561 0.814749 66.2079 1.42172 64.6434Z" fill="#FFD469"/>
<path d="M42.2069 28.3494C50.7843 36.9268 55.4757 46.1421 52.6855 48.9325C49.8953 51.7227 40.68 47.0313 32.1025 38.4539C23.5249 29.8765 18.8336 20.6612 21.6239 17.8708C24.4141 15.0805 33.6294 19.7719 42.2069 28.3494Z" fill="#A06C33"/>
<path d="M21.5753 45.4251C21.5753 46.2588 20.8994 46.9345 20.0658 46.9345C19.2323 46.9345 18.5564 46.2588 18.5564 45.4251C18.5564 44.5914 19.2321 43.9156 20.0658 43.9156C20.8995 43.9156 21.5753 44.5914 21.5753 45.4251Z" fill="#F7F9AA"/>
<path d="M69.614 29.5594C69.614 30.7559 68.6441 31.7258 67.4476 31.7258C66.2512 31.7258 65.2813 30.7559 65.2813 29.5594C65.2813 28.363 66.2512 27.3931 67.4476 27.3931C68.6441 27.3931 69.614 28.363 69.614 29.5594ZM55.1473 58.4062C53.9508 58.4062 52.981 59.3761 52.981 60.5726C52.981 61.769 53.9508 62.7389 55.1473 62.7389C56.3438 62.7389 57.3136 61.769 57.3136 60.5726C57.3136 59.3761 56.3436 58.4062 55.1473 58.4062Z" fill="#FFB636"/>
<path d="M49.3609 11.0276C49.1751 12.2847 48.3629 13.395 47.1325 14.074C46.2829 14.5427 45.284 14.7863 44.2471 14.7863C43.9168 14.7862 43.5869 14.7618 43.2602 14.7134C42.5269 14.6049 41.7929 14.7156 41.2467 15.0169C41.0018 15.152 40.581 15.4475 40.5127 15.9097C40.4444 16.3719 40.7617 16.7765 40.9568 16.9766C41.3809 17.4114 42.0281 17.7228 42.7386 17.8392C42.7582 17.8413 42.7776 17.842 42.7972 17.8449C45.7951 18.2881 47.9365 20.6627 47.5704 23.1384C47.3846 24.3956 46.5724 25.5059 45.3418 26.1849C44.4923 26.6536 43.4934 26.8972 42.4566 26.8972C42.1263 26.8971 41.7964 26.8727 41.4696 26.8243C40.7365 26.7157 40.0022 26.8264 39.456 27.1278C39.2111 27.2629 38.7904 27.5584 38.722 28.0206C38.6125 28.7624 39.5232 29.7417 41.0059 29.9608C41.8126 30.08 42.3699 30.8307 42.2506 31.6375C42.1422 32.371 41.5118 32.8983 40.7918 32.8983C40.7198 32.8983 40.6472 32.893 40.574 32.8822C37.576 32.439 35.4348 30.0642 35.8007 27.5887C35.9866 26.3315 36.7988 25.2211 38.0293 24.5422C39.1463 23.9259 40.5215 23.6988 41.9016 23.9028C42.6349 24.0111 43.3688 23.9005 43.9151 23.5992C44.16 23.4641 44.5808 23.1686 44.6491 22.7064C44.7569 21.9767 43.8757 21.0187 42.4355 20.7792C42.4119 20.7768 42.3882 20.7749 42.3645 20.7714C40.9846 20.5673 39.7338 19.9521 38.8429 19.039C37.8615 18.033 37.4053 16.7351 37.5913 15.4777C37.7771 14.2207 38.5893 13.1103 39.8197 12.4314C40.9367 11.8151 42.3119 11.588 43.692 11.792C44.425 11.9001 45.1593 11.7898 45.7055 11.4884C45.9504 11.3534 46.3711 11.0578 46.4395 10.5957C46.5077 10.1335 46.1905 9.72882 45.9953 9.52871C45.5596 9.08219 44.8892 8.7638 44.1556 8.6555C43.3489 8.53624 42.7916 7.78561 42.9109 6.97882C43.03 6.17202 43.7809 5.61539 44.5875 5.73396C45.9675 5.93808 47.2183 6.55323 48.1091 7.46639C49.0906 8.47245 49.5469 9.77042 49.3609 11.0276Z" fill="#BEA4FF"/>
<path d="M11.3324 22.1442C11.3324 23.5 10.2333 24.5991 8.87752 24.5991C7.52172 24.5991 6.42261 23.5 6.42261 22.1442C6.42261 20.7884 7.52172 19.6893 8.87752 19.6893C10.2333 19.6893 11.3324 20.7882 11.3324 22.1442ZM55.2144 19.3079C53.648 19.3079 52.3783 20.5777 52.3783 22.144C52.3783 23.7103 53.6481 24.9802 55.2144 24.9802C56.7807 24.9802 58.0506 23.7103 58.0506 22.144C58.0506 20.5777 56.7809 19.3079 55.2144 19.3079ZM29.8864 54.8999C28.32 54.8999 27.0503 56.1697 27.0503 57.736C27.0503 59.3023 28.3201 60.5721 29.8864 60.5721C31.4529 60.5721 32.7226 59.3023 32.7226 57.736C32.7226 56.1697 31.4529 54.8999 29.8864 54.8999ZM67.5085 41.9138C67.9375 41.0833 67.6119 40.0623 66.7813 39.6333C66.4502 39.4625 66.055 39.2356 65.5974 38.9731C61.5768 36.6666 53.2113 31.8673 43.361 39.8203C42.6337 40.4074 42.5203 41.4731 43.1074 42.2003C43.6944 42.9276 44.76 43.0413 45.4874 42.4539C53.5353 35.9563 60.0316 39.6826 63.9129 41.9092C64.3848 42.1799 64.8305 42.4356 65.2279 42.6409C65.4254 42.7429 65.6411 42.805 65.8626 42.8237C66.084 42.8424 66.3071 42.8172 66.5188 42.7497C66.7306 42.6822 66.927 42.5736 67.0968 42.4302C67.2666 42.2868 67.4065 42.1113 67.5085 41.9138Z" fill="#FF6E83"/>
<path d="M60.2992 8.7054C60.2992 9.5391 59.6233 10.2148 58.7897 10.2148C57.956 10.2148 57.2803 9.5391 57.2803 8.7054C57.2803 7.87171 57.956 7.19596 58.7897 7.19596C59.6234 7.19582 60.2992 7.87171 60.2992 8.7054ZM6.42375 1.6495C5.59005 1.6495 4.91431 2.32525 4.91431 3.15894C4.91431 3.99264 5.59005 4.66839 6.42375 4.66839C7.25745 4.66839 7.93333 3.99264 7.93333 3.15894C7.93333 2.32525 7.25745 1.6495 6.42375 1.6495ZM30.0924 21.3488C30.2631 21.0141 30.4736 20.6328 30.6965 20.2293C31.8272 18.181 33.3756 15.3759 33.4688 12.1088C33.5807 8.18386 31.5365 4.62027 27.3933 1.51707C26.674 0.978329 25.6545 1.1249 25.1162 1.84392C24.5776 2.56307 24.7239 3.58259 25.443 4.12105C28.7365 6.58774 30.2979 9.17023 30.2168 12.0161C30.1461 14.4944 28.8721 16.8025 27.8483 18.6569C27.6124 19.0844 27.3894 19.4881 27.1947 19.8699C26.7863 20.6701 27.104 21.6499 27.9042 22.0583C28.1326 22.1753 28.3856 22.2364 28.6423 22.2365C28.9424 22.2366 29.2366 22.1538 29.4926 21.9972C29.7485 21.8405 29.9561 21.6161 30.0924 21.3488Z" fill="#59CAFC"/>
</svg>
