<svg width="190" height="190" viewBox="0 0 190 190" fill="none" xmlns="http://www.w3.org/2000/svg">
<path d="M23.75 126.667C23.75 135.399 30.8512 142.5 39.5833 142.5H67.9725L95 169.527L122.027 142.5H150.417C159.149 142.5 166.25 135.399 166.25 126.667V31.6667C166.25 22.9346 159.149 15.8333 150.417 15.8333H39.5833C30.8512 15.8333 23.75 22.9346 23.75 31.6667V126.667ZM39.5833 31.6667H150.417V126.667H115.473L95 147.139L74.5275 126.667H39.5833V31.6667Z" fill="#0E0808" fill-opacity="0.24"/>
<path d="M87.0834 110.833H102.917V87.0833H126.667V71.25H102.917V47.5H87.0834V71.25H63.3334V87.0833H87.0834V110.833Z" fill="#0E0808" fill-opacity="0.24"/>
</svg>
