<svg width="15" height="15" viewBox="0 0 15 15" fill="none" xmlns="http://www.w3.org/2000/svg">
<path d="M13.0436 8.96292C12.9249 9.04351 12.7863 9.09107 12.6425 9.10059C12.4986 9.11011 12.3548 9.08123 12.2262 9.01699C11.9243 8.84898 11.7616 8.455 11.7616 7.91812V6.27269C11.7616 5.48281 11.4441 4.92082 10.9128 4.76825C10.015 4.50946 9.34462 5.59289 9.08586 6.00039L7.49804 8.53225V5.44226C7.4804 4.72963 7.24516 4.30282 6.80018 4.17536C6.50614 4.09038 6.06508 4.12514 5.63578 4.77018L2.08573 10.3843C1.61338 9.49399 1.36846 8.50364 1.37219 7.49903C1.37219 4.11549 4.11657 1.36346 7.49804 1.36346C10.8795 1.36346 13.6337 4.11549 13.6337 7.49903V7.51642C13.6337 7.51642 13.6337 7.528 13.6337 7.5338C13.667 8.18849 13.4514 8.70993 13.0456 8.96292H13.0436ZM15.0039 7.50097V7.46813C14.9765 3.34492 11.6205 0 7.49804 0C3.37559 0 0 3.36423 0 7.49903C0 11.6338 3.36383 15 7.49804 15C9.39417 14.9999 11.2182 14.2839 12.5947 12.9992C12.7284 12.8752 12.807 12.7043 12.8136 12.5236C12.8202 12.3428 12.7543 12.1668 12.63 12.0336C12.5706 11.9688 12.4987 11.9163 12.4186 11.879C12.3384 11.8416 12.2516 11.8203 12.1631 11.8162C12.0745 11.812 11.986 11.8252 11.9027 11.8549C11.8193 11.8846 11.7427 11.9302 11.6773 11.9892C11.0847 12.5431 10.3845 12.9732 9.6189 13.2539C8.85328 13.5345 8.038 13.6598 7.222 13.6223C6.406 13.5848 5.6061 13.3852 4.87035 13.0355C4.13459 12.6859 3.47814 12.1933 2.94041 11.5875L6.13565 6.52762V8.86249C6.13565 9.98455 6.57671 10.3476 6.9472 10.4538C7.31769 10.5601 7.88421 10.4867 8.47818 9.5365L10.2424 6.72267C10.2973 6.6319 10.3502 6.55465 10.3973 6.48706V7.91812C10.3973 8.96678 10.8246 9.80494 11.5734 10.2182C11.9139 10.3993 12.2976 10.4868 12.6843 10.4715C13.0709 10.4562 13.4462 10.3387 13.7709 10.1313C14.5942 9.60409 15.0431 8.65006 14.9961 7.50097H15.0039Z" fill="currentColor"/>
</svg>
