<svg width="27" height="27" viewBox="0 0 27 27" fill="none" xmlns="http://www.w3.org/2000/svg">
<path d="M13.5 0.583374C6.36998 0.583374 0.583313 6.37004 0.583313 13.5C0.583313 20.63 6.36998 26.4167 13.5 26.4167C20.63 26.4167 26.4166 20.63 26.4166 13.5C26.4166 6.37004 20.63 0.583374 13.5 0.583374ZM13.5 23.8334C7.80373 23.8334 3.16665 19.1963 3.16665 13.5C3.16665 7.80379 7.80373 3.16671 13.5 3.16671C19.1962 3.16671 23.8333 7.80379 23.8333 13.5C23.8333 19.1963 19.1962 23.8334 13.5 23.8334ZM6.39581 20.6042L16.0962 16.0963L20.6041 6.39587L10.9037 10.9038L6.39581 20.6042ZM13.5 12.0792C14.2879 12.0792 14.9208 12.7121 14.9208 13.5C14.9208 14.288 14.2879 14.9209 13.5 14.9209C12.7121 14.9209 12.0791 14.288 12.0791 13.5C12.0791 12.7121 12.7121 12.0792 13.5 12.0792Z" fill="#FF3465"/>
</svg>
