<svg width="31" height="35" viewBox="0 0 31 35" fill="none" xmlns="http://www.w3.org/2000/svg">
<path d="M30.7138 16.7457C30.6505 16.4291 30.4983 16.1371 30.275 15.9038C30.0517 15.6705 29.7666 15.5057 29.4531 15.4286L17.7339 12.4971L22.068 2.38204C22.2189 2.03103 22.2476 1.63947 22.1494 1.2702C22.0512 0.900929 21.8318 0.57535 21.5264 0.345708C21.2216 0.114559 20.8478 -0.00711709 20.4653 0.000321922C20.0828 0.00776093 19.714 0.143881 19.4183 0.386709L0.626674 15.7617C0.381557 15.9622 0.197 16.2269 0.0936098 16.5262C-0.00978042 16.8256 -0.0279335 17.1478 0.0411771 17.4568C0.110288 17.7659 0.263942 18.0496 0.484982 18.2764C0.706022 18.5032 0.985747 18.664 1.29292 18.741L12.7712 21.6127L7.05684 31.6133C6.90942 31.8731 6.83263 32.167 6.83411 32.4657C6.83559 32.7644 6.91529 33.0576 7.06528 33.3159C7.21527 33.5742 7.43031 33.7887 7.68899 33.9381C7.94767 34.0875 8.24096 34.1665 8.53967 34.1673C8.90941 34.1679 9.26926 34.048 9.56468 33.8256L30.0647 18.4506C30.3229 18.2568 30.521 17.9938 30.6359 17.6921C30.7508 17.3903 30.7778 17.0622 30.7138 16.7457Z" fill="#FF3465"/>
</svg>
