<svg width="25" height="35" viewBox="0 0 25 35" fill="none" xmlns="http://www.w3.org/2000/svg">
<path d="M24.1919 16.9652C23.9859 16.4637 23.4964 16.136 22.9548 16.136H16.5255L19.0962 1.65789C19.1979 1.08275 18.9169 0.510335 18.4007 0.238796C17.8844 -0.0300253 17.2531 0.062276 16.8385 0.472843L0.614927 16.5225C0.228402 16.9036 0.112058 17.4801 0.317987 17.9816C0.523984 18.4832 1.01347 18.8108 1.55512 18.8108H7.98436L5.41514 33.289C5.31347 33.8642 5.59438 34.4366 6.11063 34.7081C6.30725 34.8098 6.5199 34.8606 6.7312 34.8606C7.07493 34.8606 7.41466 34.7282 7.67146 34.4741L23.895 18.4244C24.2816 18.0432 24.3979 17.4667 24.1919 16.9652ZM8.78424 29.6097L10.8975 17.7062C10.967 17.317 10.86 16.9171 10.6059 16.6134C10.3504 16.3111 9.97594 16.1359 9.58004 16.1359H4.80931L15.7257 5.33724L13.6125 17.2408C13.543 17.6299 13.6499 18.0299 13.9041 18.3335C14.1595 18.6358 14.534 18.811 14.9299 18.811H19.7007L8.78424 29.6097Z" fill="#FF3465"/>
</svg>
