<svg width="23" height="22" viewBox="0 0 23 22" fill="none" xmlns="http://www.w3.org/2000/svg">
<path d="M22.7344 0.266951C22.6049 0.143825 22.4413 0.0585764 22.2629 0.0212298C22.0844 -0.0161169 21.8985 -0.00400938 21.727 0.0561287L0.619181 7.38908C0.437143 7.45505 0.28042 7.57236 0.169825 7.72544C0.0592309 7.87852 0 8.06012 0 8.24612C0 8.43213 0.0592309 8.61373 0.169825 8.76681C0.28042 8.91988 0.437143 9.0372 0.619181 9.10316L8.86083 12.2472L14.9437 6.41747L16.2965 7.7099L10.1849 13.5488L13.4854 21.4225C13.5565 21.5931 13.6795 21.7393 13.8386 21.8423C13.9977 21.9452 14.1855 22.0002 14.3776 22C14.5715 21.9962 14.7597 21.9364 14.9172 21.8284C15.0748 21.7204 15.1944 21.5693 15.2603 21.395L22.9359 1.2294C23.0013 1.06723 23.017 0.890647 22.9814 0.720241C22.9457 0.549835 22.86 0.392629 22.7344 0.266951Z" fill="#FF3465"/>
</svg>
