<svg width="52" height="37" viewBox="0 0 52 37" fill="none" xmlns="http://www.w3.org/2000/svg">
<path d="M42.14 15.45C42.445 14.535 42.75 13.62 42.75 12.4C42.75 5.68995 37.26 0.199951 30.55 0.199951C25.975 0.199951 21.705 2.94495 19.875 6.90995C18.96 6.60495 17.74 6.29995 16.825 6.29995C12.555 6.29995 9.20005 9.65495 9.20005 13.925C9.20005 14.535 9.20005 15.145 9.50505 15.45C4.01505 16.365 0.0500488 20.635 0.0500488 26.125C0.0500488 31.92 4.93005 36.7999 10.725 36.7999H21.4V27.65H12.25L25.975 13.925L39.7 27.65H30.55V36.7999H41.225C47.02 36.7999 51.9 31.92 51.9 26.125C51.9 20.635 47.63 16.06 42.14 15.45Z" fill="currentColor" fill-opacity="0.35"/>
</svg>

