<svg width="45" height="22" viewBox="0 0 45 22" fill="none" xmlns="http://www.w3.org/2000/svg">
<g clip-path="url(#clip0)">
<path d="M10.2916 4.47808V0.185942C5.31943 -0.112122 3.01307 2.39162 3.01307 6.56453H1.00623V10.8567H3.01307V21.4678H7.50598V10.8567H10.2916V6.56453H7.50598C7.50598 4.83575 8.61424 4.32904 10.2916 4.47808Z" fill="currentColor"/>
<path d="M38.9407 6.14722C36.9638 6.14722 35.4662 6.86257 34.6575 7.96541V6.56451H30.1646V21.4677H34.6575V13.3306C34.6575 11.2143 35.7957 10.2605 37.4431 10.2605C38.8808 10.2605 40.049 11.1249 40.049 12.9729V21.4677H44.5419V12.3172C44.5419 8.29328 41.9659 6.14722 38.9407 6.14722Z" fill="currentColor"/>
<path fill-rule="evenodd" clip-rule="evenodd" d="M22.3754 6.56451V7.96541C21.3869 6.83277 19.9192 6.14722 17.9124 6.14722C13.9886 6.14722 10.7537 9.57496 10.7537 14.0161C10.7537 18.4573 13.9886 21.885 17.9124 21.885C19.9192 21.885 21.3869 21.1995 22.3754 20.0668V21.4677H26.8683V6.56451H22.3754ZM18.5119 18.8653C18.5752 18.8911 18.6429 18.9042 18.7112 18.9038C18.7796 18.9042 18.8473 18.8911 18.9106 18.8653C18.9738 18.8395 19.0314 18.8014 19.0799 18.7533L23.1143 14.7137C23.6204 14.2023 23.9042 13.5119 23.9042 12.7925C23.9042 12.0731 23.6204 11.3827 23.1143 10.8713C22.6043 10.3628 21.9134 10.0772 21.1932 10.0772C20.4729 10.0772 19.782 10.3628 19.272 10.8713L18.7112 11.4321L18.1505 10.8713C17.6405 10.3628 16.9496 10.0772 16.2293 10.0772C15.5091 10.0772 14.8182 10.3628 14.3082 10.8713C13.8021 11.3827 13.5182 12.0731 13.5182 12.7925C13.5182 13.5119 13.8021 14.2023 14.3082 14.7137L18.3426 18.7533C18.3911 18.8014 18.4486 18.8395 18.5119 18.8653Z" fill="currentColor"/>
</g>
<defs>
<clipPath id="clip0">
<rect width="43.6812" height="22" fill="white" transform="translate(0.942017)"/>
</clipPath>
</defs>
</svg>
