<svg width="21" height="24" viewBox="0 0 21 24" fill="none" xmlns="http://www.w3.org/2000/svg">
<path d="M20.565 4.716L10.815 0.0715828C10.7163 0.0244257 10.6088 0 10.5 0C10.3912 0 10.2837 0.0244257 10.185 0.0715828L0.435002 4.716C0.304817 4.77818 0.194641 4.8776 0.11754 5.00245C0.0404392 5.1273 -0.000352668 5.27235 2.29705e-06 5.42041V18.5796C-0.000352668 18.7276 0.0404392 18.8727 0.11754 18.9976C0.194641 19.1224 0.304817 19.2218 0.435002 19.284L10.185 23.9284C10.2837 23.9756 10.3912 24 10.5 24C10.6088 24 10.7163 23.9756 10.815 23.9284L20.565 19.284C20.6952 19.2218 20.8054 19.1224 20.8825 18.9976C20.9596 18.8727 21.0004 18.7276 21 18.5796V5.42041C21.0004 5.27235 20.9596 5.1273 20.8825 5.00245C20.8054 4.8776 20.6952 4.77818 20.565 4.716ZM10.5 1.62746L18.4575 5.42041L10.5 9.21335L2.5425 5.42041L10.5 1.62746ZM1.5 6.62795L9.75 10.5602V22.0165L1.5 18.0842V6.62795ZM11.25 22.0165V10.5602L19.5 6.62795V18.0842L11.25 22.0165Z" fill="currentColor"/>
</svg>
