<svg width="22" height="23" viewBox="0 0 22 23" fill="none" xmlns="http://www.w3.org/2000/svg">
<path d="M21.5425 7.348C20.4925 6.3785 19.04 4.898 17.857 3.848L17.787 3.799C17.6705 3.70547 17.5392 3.63212 17.3985 3.582C14.546 3.05 1.27048 0.568498 1.01148 0.599998C0.938907 0.610162 0.869538 0.636475 0.80848 0.676998L0.74198 0.729498C0.660096 0.812658 0.597903 0.913124 0.55998 1.0235L0.54248 1.069V1.3175V1.356C2.03698 5.5175 7.93798 19.15 9.09998 22.349C9.16998 22.566 9.30298 22.979 9.55148 23H9.60748C9.74048 23 10.3075 22.251 10.3075 22.251C10.3075 22.251 20.4435 9.959 21.469 8.65C21.6017 8.48876 21.7189 8.31532 21.819 8.132C21.8445 7.98857 21.8325 7.84096 21.784 7.70357C21.7356 7.56617 21.6523 7.44367 21.5425 7.348ZM12.908 8.7795L17.234 5.192L19.7715 7.53L12.908 8.7795ZM11.228 8.545L3.77998 2.441L15.8305 4.6635L11.228 8.545ZM11.9 10.1445L19.523 8.916L10.808 19.416L11.9 10.1445ZM2.76848 3.05L10.605 9.7L9.47098 19.423L2.76848 3.05Z" fill="currentColor"/>
</svg>
