<svg width="21" height="20" viewBox="0 0 21 20" fill="none" xmlns="http://www.w3.org/2000/svg">
<path d="M19.64 11.0002C19.4956 10.8808 19.3207 10.8045 19.1351 10.7797C18.9494 10.755 18.7606 10.7828 18.59 10.8602C17.5326 11.344 16.3829 11.5931 15.22 11.5902C13.0689 11.5876 11.006 10.7346 9.48114 9.21725C7.9563 7.69991 7.09319 5.64126 7.08 3.49015C7.08456 2.81598 7.16847 2.1447 7.33 1.49015C7.36428 1.31569 7.35142 1.13524 7.29275 0.967405C7.23409 0.799566 7.13174 0.650403 6.99624 0.535283C6.86074 0.420163 6.69701 0.343249 6.5219 0.312466C6.34678 0.281683 6.16663 0.298143 6 0.360151C4.43232 1.06506 3.06957 2.15691 2.03976 3.53313C1.00994 4.90936 0.346878 6.52478 0.112847 8.22764C-0.121184 9.9305 0.0815036 11.6649 0.701868 13.2679C1.32223 14.8709 2.33991 16.2899 3.6593 17.3916C4.97869 18.4933 6.55647 19.2415 8.24444 19.566C9.93241 19.8904 11.6752 19.7804 13.3089 19.2464C14.9427 18.7123 16.414 17.7717 17.5844 16.5129C18.7548 15.2541 19.5861 13.7184 20 12.0502C20.0504 11.8591 20.0431 11.6575 19.9791 11.4706C19.915 11.2837 19.797 11.12 19.64 11.0002ZM10.14 17.6902C8.46176 17.6783 6.8282 17.148 5.46299 16.1719C4.09778 15.1957 3.06766 13.8215 2.51368 12.2373C1.9597 10.6531 1.90893 8.93634 2.36834 7.32216C2.82774 5.70797 3.77485 4.27525 5.08 3.22015V3.49015C5.08265 6.17863 6.15181 8.75624 8.05286 10.6573C9.95391 12.5583 12.5315 13.6275 15.22 13.6302C15.9259 13.6327 16.63 13.559 17.32 13.4102C16.6299 14.7157 15.5965 15.808 14.3312 16.5693C13.0658 17.3306 11.6167 17.732 10.14 17.7302V17.6902Z" fill="#262626"/>
</svg>
